<svg viewBox="0 0 57.59 57.59" xmlns="http://www.w3.org/2000/svg"><circle cx="25.09" cy="17.68" fill="#f5ce42" r="14.18"/><path d="m35.58 36.72a12.29 12.29 0 1 0 -11.82-15.66 8.58 8.58 0 1 0 -4.85 15.66z" fill="#b9d8e8"/><g fill="none" stroke="#007a9d" stroke-linecap="round" stroke-linejoin="round"><path d="m41.88 31v7.83"/><path d="m43.16 31.86-1.28 1.28-1.27-1.28"/><path d="m40.61 38 1.27-1.28 1.28 1.28"/><path d="m38 34.91h7.8"/><path d="m38.83 33.63 1.28 1.28-1.28 1.29"/><path d="m44.94 36.2-1.28-1.29 1.28-1.28"/></g><path d="m17.44 33.14a1.92 1.92 0 0 1 1.91 1.91v2.82a1.92 1.92 0 0 1 -1.91 1.91 1.91 1.91 0 0 1 -1.91-1.91v-2.82a1.91 1.91 0 0 1 1.91-1.91z" fill="#615c9a"/><path d="m21.29 40.18a2 2 0 0 1 1.95 2v2.82a2 2 0 0 1 -1.95 2 1.94 1.94 0 0 1 -1.94-2v-2.87a1.94 1.94 0 0 1 1.94-1.95z" fill="#9fa6b7"/><path d="m26 33.14a2 2 0 0 1 1.95 2v5.46a2 2 0 0 1 -1.95 2 1.94 1.94 0 0 1 -1.94-2v-5.51a1.94 1.94 0 0 1 1.94-1.95z" fill="#83b3cb"/><path d="m34.72 30.29-5.62 6.32h3.4l-1.25 4.9 6-6.42h-3.71z" fill="#d86837"/></svg>