<svg viewBox="0 0 57.59 57.59" xmlns="http://www.w3.org/2000/svg"><path d="m21.78 5.5a11.42 11.42 0 0 1 -11.4 11.44 11.76 11.76 0 0 1 -2.44-.26 11.43 11.43 0 1 0 13.53-13.8 11 11 0 0 1 .31 2.62z" fill="#7269af"/><path d="m35.57 36.72a12.29 12.29 0 1 0 -11.81-15.66 8.58 8.58 0 1 0 -4.86 15.66z" fill="#b9d8e8"/><g fill="none" stroke="#007a9d" stroke-linecap="round" stroke-linejoin="round" stroke-width="2"><path d="m37.33 31.33v11"/><path d="m39.13 32.55-1.8 1.8-1.8-1.8"/><path d="m35.53 41.15 1.8-1.8 1.8 1.8"/><path d="m31.81 36.85h11"/><path d="m33 35.05 1.8 1.8-1.8 1.81"/><path d="m41.63 38.66-1.8-1.81 1.8-1.8"/></g><path d="m17.35 32.89a1.91 1.91 0 0 1 1.91 1.91v2.82a1.92 1.92 0 0 1 -1.91 1.91 1.91 1.91 0 0 1 -1.91-1.91v-2.82a1.9 1.9 0 0 1 1.91-1.91z" fill="#615c9a"/><path d="m21.2 39.93a2 2 0 0 1 1.95 2v2.87a2 2 0 0 1 -1.95 2 2 2 0 0 1 -1.94-2v-2.92a1.94 1.94 0 0 1 1.94-1.95z" fill="#9fa6b7"/><path d="m25.91 32.89a2 2 0 0 1 1.95 2v5.41a2 2 0 0 1 -1.95 2 2 2 0 0 1 -1.94-2v-5.46a1.94 1.94 0 0 1 1.94-1.95z" fill="#83b3cb"/></svg>