<svg viewBox="0 0 57.59 57.59" xmlns="http://www.w3.org/2000/svg"><path d="m21.78 5.5a11.42 11.42 0 0 1 -11.4 11.44 11.76 11.76 0 0 1 -2.44-.26 11.43 11.43 0 1 0 13.53-13.8 11 11 0 0 1 .31 2.62z" fill="#7269af"/><path d="m35.57 36.72a12.29 12.29 0 1 0 -11.81-15.66 8.58 8.58 0 1 0 -4.86 15.66z" fill="#b9d8e8"/><g fill="none" stroke="#007a9d" stroke-linecap="round" stroke-linejoin="round"><path d="m41.88 31v7.83"/><path d="m43.16 31.86-1.28 1.28-1.27-1.28"/><path d="m40.61 38 1.27-1.28 1.28 1.28"/><path d="m38 34.91h7.8"/><path d="m38.83 33.63 1.28 1.28-1.28 1.29"/><path d="m44.94 36.2-1.28-1.29 1.28-1.28"/></g><path d="m17.28 32.87a1.92 1.92 0 0 1 1.91 1.91v2.82a1.91 1.91 0 0 1 -1.91 1.91 1.9 1.9 0 0 1 -1.91-1.91v-2.82a1.91 1.91 0 0 1 1.91-1.91z" fill="#615c9a"/><path d="m21.13 39.91a2 2 0 0 1 1.95 2v2.87a2 2 0 0 1 -1.95 2 1.94 1.94 0 0 1 -1.94-2v-2.92a2 2 0 0 1 1.94-1.95z" fill="#9fa6b7"/><path d="m25.84 32.87a2 2 0 0 1 1.95 2v5.46a2 2 0 0 1 -1.95 1.95 1.94 1.94 0 0 1 -1.94-1.95v-5.51a2 2 0 0 1 1.94-1.95z" fill="#83b3cb"/><path d="m34.72 30.29-5.62 6.32h3.4l-1.25 4.9 6-6.42h-3.71z" fill="#d86837"/></svg>