<svg viewBox="0 0 57.59 57.59" xmlns="http://www.w3.org/2000/svg"><path d="m35.25 36.83a12.29 12.29 0 1 0 -11.81-15.66 8.58 8.58 0 1 0 -4.86 15.66z" fill="#b9d8e8"/><path d="m32.84 26.4-9.19 10.34 5.56.07-2 8 9.9-10.49h-6.2z" fill="#d86837"/><path d="m20.31 33a1.9 1.9 0 0 1 1.91 1.91v3.91a1.91 1.91 0 0 1 -1.91 1.91 1.92 1.92 0 0 1 -1.91-1.91v-3.88a1.91 1.91 0 0 1 1.91-1.94z" fill="#615c9a"/><path d="m25.43 40.37a1.94 1.94 0 0 1 1.94 2v4.07a2 2 0 0 1 -1.94 2 2 2 0 0 1 -1.95-2v-4.12a2 2 0 0 1 1.95-1.95z" fill="#9fa6b7"/><path d="m36.92 33a1.94 1.94 0 0 1 1.94 2v9.37a2 2 0 0 1 -1.94 1.95 2 2 0 0 1 -2-1.95v-9.37a2 2 0 0 1 2-2z" fill="#83b3cb"/></svg>