<svg viewBox="0 0 57.59 57.59" xmlns="http://www.w3.org/2000/svg"><path d="m21.49 5.56a11.44 11.44 0 0 1 -11.42 11.44 11.76 11.76 0 0 1 -2.44-.26 11.44 11.44 0 1 0 13.54-13.8 11.59 11.59 0 0 1 .32 2.62z" fill="#7269af"/><path d="m35.27 36.78a12.29 12.29 0 1 0 -11.81-15.66 8.58 8.58 0 1 0 -4.86 15.66z" fill="#b9d8e8"/><g fill="none" stroke="#007a9d" stroke-linecap="round" stroke-linejoin="round"><path d="m40.58 30.68v11.22" stroke-width="1.32"/><path d="m42.42 31.92-1.84 1.83-1.83-1.83" stroke-width="1.32"/><path d="m38.75 40.66 1.83-1.83 1.84 1.83" stroke-width="1.32"/><path d="m34.97 36.29h11.23" stroke-width="1.32"/><path d="m36.21 34.46 1.83 1.83-1.83 1.84" stroke-width="1.32"/><path d="m44.96 38.13-1.84-1.84 1.84-1.83" stroke-width="1.32"/><path d="m23.42 39.56v5.45" stroke-width=".64"/><path d="m24.31 40.16-.89.89-.89-.89" stroke-width=".64"/><path d="m22.53 44.41.89-.89.89.89" stroke-width=".64"/><path d="m20.7 42.29h5.45" stroke-width=".64"/><path d="m21.3 41.4.89.89-.89.89" stroke-width=".64"/><path d="m25.54 43.18-.89-.89.89-.89" stroke-width=".64"/><path d="m15.64 33.7v7.7" stroke-width=".9"/><path d="m16.9 34.55-1.26 1.26-1.25-1.26" stroke-width=".9"/><path d="m14.39 40.55 1.25-1.26 1.26 1.26" stroke-width=".9"/><path d="m11.8 37.55h7.69" stroke-width=".9"/><path d="m12.65 36.29 1.25 1.26-1.25 1.25" stroke-width=".9"/><path d="m18.64 38.8-1.25-1.25 1.25-1.26" stroke-width=".9"/></g><path d="m30.78 30.76-5.52 6.22 3.33.03-1.22 4.81 5.94-6.3h-3.69z" fill="#d86837"/></svg>