<svg viewBox="0 0 57.59 57.59" xmlns="http://www.w3.org/2000/svg"><path d="m35.27 36.78a12.29 12.29 0 1 0 -11.81-15.66 8.58 8.58 0 1 0 -4.85 15.66z" fill="#b9d8e8"/><g fill="none" stroke="#007a9d" stroke-linecap="round" stroke-linejoin="round" stroke-width="2"><path d="m37.33 31.33v11"/><path d="m39.13 32.55-1.8 1.8-1.8-1.8"/><path d="m35.53 41.15 1.8-1.8 1.8 1.8"/><path d="m31.81 36.85h11"/><path d="m33 35.05 1.8 1.8-1.8 1.81"/><path d="m41.63 38.66-1.8-1.81 1.8-1.8"/></g><path d="m17 32.55a1.91 1.91 0 0 1 1.91 1.91v2.82a1.91 1.91 0 0 1 -1.91 1.91 1.92 1.92 0 0 1 -1.91-1.91v-2.82a1.92 1.92 0 0 1 1.91-1.91z" fill="#615c9a"/><path d="m20.86 39.59a1.94 1.94 0 0 1 1.94 1.95v2.87a1.94 1.94 0 0 1 -1.94 2 2 2 0 0 1 -1.95-2v-2.87a2 2 0 0 1 1.95-1.95z" fill="#9fa6b7"/><path d="m25.57 32.55a1.94 1.94 0 0 1 1.94 2v5.45a1.94 1.94 0 0 1 -1.94 1.95 2 2 0 0 1 -1.95-1.95v-5.5a2 2 0 0 1 1.95-1.95z" fill="#83b3cb"/></svg>