<svg viewBox="0 0 57.59 57.59" xmlns="http://www.w3.org/2000/svg"><circle cx="24.79" cy="22.02" fill="#f5ce42" r="14.19"/><path d="m35.27 41.06a12.29 12.29 0 1 0 -11.81-15.66 8.58 8.58 0 1 0 -4.85 15.66z" fill="#b9d8e8"/><path d="m20.11 37a1.9 1.9 0 0 1 1.89 1.94v3.91a1.91 1.91 0 0 1 -1.91 1.91 1.92 1.92 0 0 1 -1.91-1.91v-3.91a1.91 1.91 0 0 1 1.93-1.94z" fill="#615c9a"/><path d="m29.4 37a1.94 1.94 0 0 1 1.94 2v2.27a2 2 0 0 1 -1.94 2 2 2 0 0 1 -1.95-2v-2.27a2 2 0 0 1 1.95-2z" fill="#9fa6b7"/><path d="m25.23 44.37a1.94 1.94 0 0 1 1.94 2v4.07a2 2 0 0 1 -1.94 2 2 2 0 0 1 -1.95-2v-4.12a2 2 0 0 1 1.95-1.95z" fill="#9fa6b7"/><path d="m36.72 37a1.94 1.94 0 0 1 1.94 2v9.37a2 2 0 0 1 -1.94 1.95 2 2 0 0 1 -1.95-1.95v-9.37a2 2 0 0 1 1.95-2z" fill="#83b3cb"/></svg>