<svg viewBox="0 0 57.59 57.59" xmlns="http://www.w3.org/2000/svg"><path d="m21.78 5.5a11.42 11.42 0 0 1 -11.4 11.44 11.76 11.76 0 0 1 -2.44-.26 11.43 11.43 0 1 0 13.53-13.8 11 11 0 0 1 .31 2.62z" fill="#7269af"/><path d="m35.57 36.72a12.29 12.29 0 1 0 -11.81-15.66 8.58 8.58 0 1 0 -4.86 15.66z" fill="#b9d8e8"/><g fill="none" stroke-linecap="round" stroke-linejoin="round"><path d="m41.88 31v7.83" stroke="#007a9d"/><path d="m43.16 31.86-1.28 1.28-1.27-1.28" stroke="#007a9d"/><path d="m40.61 37.97 1.27-1.28 1.28 1.28" stroke="#007a9d"/><path d="m37.97 34.91h7.83" stroke="#007a9d"/><path d="m38.83 33.63 1.28 1.28-1.28 1.29" stroke="#007a9d"/><path d="m44.94 36.2-1.28-1.29 1.28-1.28" stroke="#007a9d"/><path d="m26.63 40.81v-6.15" stroke="#83b3cb" stroke-width="4"/><path d="m21.09 43.75v-3.5" stroke="#9fa6b7" stroke-width="4"/><path d="m16.94 38v-3.34" stroke="#615c9a" stroke-width="4"/></g><path d="m34.72 30.29-5.62 6.32 3.4.04-1.25 4.9 6.05-6.42h-3.76z" fill="#d86837"/></svg>