<svg viewBox="0 0 57.59 57.59" xmlns="http://www.w3.org/2000/svg"><path d="m35.25 36.83a12.29 12.29 0 1 0 -11.81-15.66 8.58 8.58 0 1 0 -4.86 15.66z" fill="#b9d8e8"/><path d="m20.47 32.46a1.91 1.91 0 0 1 1.91 1.91v3.91a1.9 1.9 0 0 1 -1.91 1.91 1.91 1.91 0 0 1 -1.91-1.91v-3.91a1.92 1.92 0 0 1 1.91-1.91z" fill="#615c9a"/><rect fill="#9fa6b7" height="6.17" rx="1.94" width="3.89" x="27.81" y="32.46"/><path d="m25.59 39.8a2 2 0 0 1 1.94 2v4.07a1.94 1.94 0 0 1 -1.94 2 2 2 0 0 1 -1.95-2v-4.12a2 2 0 0 1 1.95-1.95z" fill="#9fa6b7"/><path d="m37.08 32.46a2 2 0 0 1 1.92 1.95v9.37a1.94 1.94 0 0 1 -1.94 1.95 2 2 0 0 1 -1.95-1.95v-9.37a2 2 0 0 1 1.97-1.95z" fill="#83b3cb"/></svg>