<svg viewBox="0 0 57.59 57.59" xmlns="http://www.w3.org/2000/svg"><path d="m22.68 9.45a11.43 11.43 0 0 1 -11.42 11.44 11.66 11.66 0 0 1 -2.43-.26 11.43 11.43 0 1 0 13.54-13.8 11.58 11.58 0 0 1 .31 2.62z" fill="#7269af"/><path d="m36.47 40.67a12.29 12.29 0 1 0 -11.82-15.67 8.58 8.58 0 1 0 -4.85 15.67z" fill="#b9d8e8"/><path d="m31.42 33.67-6.31 7.11h3.82l-1.41 5.5 6.81-7.21h-4.24z" fill="#d86837"/><path d="m20.64 36.52a1.91 1.91 0 0 1 1.91 1.91v3.91a1.9 1.9 0 0 1 -1.91 1.91 1.91 1.91 0 0 1 -1.91-1.91v-3.91a1.92 1.92 0 0 1 1.91-1.91z" fill="#615c9a"/><path d="m25.76 43.86a2 2 0 0 1 1.94 2v4.07a2 2 0 0 1 -1.94 2 2 2 0 0 1 -2-2v-4.11a2 2 0 0 1 2-1.96z" fill="#9fa6b7"/><path d="m37.25 36.52a2 2 0 0 1 1.94 2v9.36a2 2 0 0 1 -1.94 2 2 2 0 0 1 -2-2v-9.4a2 2 0 0 1 2-1.96z" fill="#83b3cb"/></svg>