<svg viewBox="0 0 57.59 57.59" xmlns="http://www.w3.org/2000/svg"><path d="m21.78 5.5a11.42 11.42 0 0 1 -11.41 11.44 11.76 11.76 0 0 1 -2.44-.26 11.43 11.43 0 1 0 13.54-13.8 11 11 0 0 1 .31 2.62z" fill="#7269af"/><path d="m35.57 36.72a12.29 12.29 0 1 0 -11.81-15.66 8.58 8.58 0 1 0 -4.86 15.66z" fill="#b9d8e8"/><g fill="none" stroke-linecap="round" stroke-linejoin="round"><path d="m37.33 31.33v11.04" stroke="#007a9d" stroke-width="2"/><path d="m39.13 32.55-1.8 1.8-1.8-1.8" stroke="#007a9d" stroke-width="2"/><path d="m35.53 41.15 1.8-1.8 1.8 1.8" stroke="#007a9d" stroke-width="2"/><path d="m31.81 36.85h11.04" stroke="#007a9d" stroke-width="2"/><path d="m33.03 35.05 1.8 1.8-1.8 1.81" stroke="#007a9d" stroke-width="2"/><path d="m41.63 38.66-1.8-1.81 1.8-1.8" stroke="#007a9d" stroke-width="2"/><path d="m26.63 40.81v-6.15" stroke="#83b3cb" stroke-width="4"/><path d="m21.09 43.75v-3.5" stroke="#9fa6b7" stroke-width="4"/><path d="m16.94 38v-3.34" stroke="#615c9a" stroke-width="4"/></g></svg>