<svg viewBox="0 0 57.59 57.59" xmlns="http://www.w3.org/2000/svg"><circle cx="24.87" cy="17.74" fill="#f5ce42" r="14.18"/><path d="m35.35 36.78a12.29 12.29 0 1 0 -11.81-15.66 8.58 8.58 0 1 0 -4.85 15.66z" fill="#b9d8e8"/><g fill="none" stroke="#007a9d" stroke-linecap="round" stroke-linejoin="round"><g stroke-width="1.69"><path d="m36.08 29.65v14.41"/><path d="m38.44 31.24-2.36 2.35-2.35-2.35"/><path d="m33.73 42.47 2.35-2.36 2.36 2.36"/><path d="m28.88 36.85h14.41"/><path d="m30.47 34.5 2.35 2.35-2.35 2.35"/><path d="m41.7 39.2-2.36-2.35 2.36-2.35"/></g><path d="m24.02 40.1v5.45" stroke-width=".64"/><path d="m24.91 40.7-.89.89-.89-.89" stroke-width=".64"/><path d="m23.13 44.95.89-.89.89.89" stroke-width=".64"/><path d="m21.3 42.82h5.45" stroke-width=".64"/><path d="m21.9 41.93.89.89-.89.89" stroke-width=".64"/><path d="m26.15 43.71-.89-.89.89-.89" stroke-width=".64"/><path d="m15.64 33.7v7.7" stroke-width=".9"/><path d="m16.9 34.55-1.26 1.26-1.25-1.26" stroke-width=".9"/><path d="m14.39 40.55 1.25-1.26 1.26 1.26" stroke-width=".9"/><path d="m11.8 37.55h7.69" stroke-width=".9"/><path d="m12.65 36.29 1.25 1.26-1.25 1.25" stroke-width=".9"/><path d="m18.64 38.8-1.25-1.25 1.25-1.26" stroke-width=".9"/></g></svg>