<svg viewBox="0 0 57.59 57.59" xmlns="http://www.w3.org/2000/svg"><path d="m22.68 9.45a11.43 11.43 0 0 1 -11.42 11.44 11.74 11.74 0 0 1 -2.43-.26 11.43 11.43 0 1 0 13.54-13.8 11.58 11.58 0 0 1 .31 2.62z" fill="#7269af"/><path d="m36.47 40.67a12.29 12.29 0 1 0 -11.82-15.67 8.58 8.58 0 1 0 -4.85 15.67z" fill="#b9d8e8"/><g fill="none" stroke-linecap="round" stroke-linejoin="round" stroke-width="4"><path d="m37.06 45.13v-7.06" stroke="#83b3cb"/><path d="m25.89 50.76v-4" stroke="#9fa6b7"/><path d="m21.44 41.92v-3.85" stroke="#615c9a"/></g><path d="m31.42 33.67-6.31 7.11 3.82.04-1.41 5.5 6.81-7.21h-4.24z" fill="#d86837"/></svg>