<svg viewBox="0 0 57.59 57.59" xmlns="http://www.w3.org/2000/svg"><path d="m35.27 36.78a12.29 12.29 0 1 0 -11.81-15.66 8.58 8.58 0 1 0 -4.85 15.66z" fill="#b9d8e8"/><g fill="none" stroke="#007a9d" stroke-linecap="round" stroke-linejoin="round"><path d="m41.2 31.66v8.28"/><path d="m42.55 32.58-1.35 1.35-1.35-1.35"/><path d="m39.85 39 1.35-1.35 1.35 1.35"/><path d="m37.06 35.8h8.28"/><path d="m38 34.45 1.36 1.35-1.36 1.36"/><path d="m44.42 37.16-1.35-1.36 1.35-1.35"/></g><path d="m17.62 32.77a1.91 1.91 0 0 1 1.91 1.91v2.82a1.91 1.91 0 0 1 -1.91 1.91 1.92 1.92 0 0 1 -1.91-1.91v-2.82a1.92 1.92 0 0 1 1.91-1.91z" fill="#615c9a"/><path d="m21.48 39.81a1.94 1.94 0 0 1 1.94 1.95v2.87a1.94 1.94 0 0 1 -1.94 1.95 2 2 0 0 1 -1.95-1.95v-2.87a2 2 0 0 1 1.95-1.95z" fill="#9fa6b7"/><path d="m26.19 32.77a1.94 1.94 0 0 1 1.94 1.95v5.46a1.94 1.94 0 0 1 -1.94 2 2 2 0 0 1 -2-2v-5.46a2 2 0 0 1 2-1.95z" fill="#83b3cb"/><path d="m34 31.16-5 5.62h3l-1.1 4.35 5.37-5.69h-3.36z" fill="#d86837"/></svg>