<svg viewBox="0 0 57.59 57.59" xmlns="http://www.w3.org/2000/svg"><path d="m22.68 9.45a11.43 11.43 0 0 1 -11.42 11.44 11.74 11.74 0 0 1 -2.43-.26 11.43 11.43 0 1 0 13.54-13.8 11.58 11.58 0 0 1 .31 2.62z" fill="#7269af"/><path d="m36.47 40.67a12.29 12.29 0 1 0 -11.82-15.67 8.58 8.58 0 1 0 -4.85 15.67z" fill="#b9d8e8"/><path d="m20.82 36.45a1.91 1.91 0 0 1 1.91 1.91v3.91a1.92 1.92 0 0 1 -1.91 1.91 1.91 1.91 0 0 1 -1.91-1.91v-3.91a1.9 1.9 0 0 1 1.91-1.91z" fill="#615c9a"/><rect fill="#9fa6b7" height="6.17" rx="1.94" width="3.89" x="28.16" y="36.45"/><path d="m25.93 43.79a2 2 0 0 1 1.95 2v4.07a2 2 0 0 1 -1.95 1.95 1.94 1.94 0 0 1 -1.93-2v-4.07a1.94 1.94 0 0 1 1.93-1.95z" fill="#9fa6b7"/><path d="m37.42 36.45a2 2 0 0 1 1.95 1.95v9.37a2 2 0 0 1 -1.95 1.95 1.94 1.94 0 0 1 -1.94-1.95v-9.37a1.94 1.94 0 0 1 1.94-1.95z" fill="#83b3cb"/></svg>