<svg viewBox="0 0 57.59 57.59" xmlns="http://www.w3.org/2000/svg"><circle cx="24.79" cy="22.02" fill="#f5ce42" r="14.18"/><path d="m35.27 41.06a12.29 12.29 0 1 0 -11.81-15.66 8.58 8.58 0 1 0 -4.85 15.66z" fill="#b9d8e8"/><path d="m30 33.88-6.34 7.12 3.82.05-1.41 5.5 6.81-7.21h-4.23z" fill="#d86837"/><path d="m19.24 37a1.92 1.92 0 0 1 1.91 1.91v3.91a1.91 1.91 0 0 1 -1.91 1.91 1.9 1.9 0 0 1 -1.91-1.91v-3.89a1.91 1.91 0 0 1 1.91-1.93z" fill="#615c9a"/><path d="m24.35 44.36a2 2 0 0 1 1.95 2v4.07a2 2 0 0 1 -1.95 1.95 1.94 1.94 0 0 1 -1.94-1.95v-4.12a2 2 0 0 1 1.94-1.95z" fill="#9fa6b7"/><path d="m35.84 37a2 2 0 0 1 1.95 2v9.37a2 2 0 0 1 -1.95 1.95 1.94 1.94 0 0 1 -1.94-1.95v-9.37a2 2 0 0 1 1.94-2z" fill="#83b3cb"/></svg>