<svg viewBox="0 0 57.59 57.59" xmlns="http://www.w3.org/2000/svg"><circle cx="24.81" cy="17.68" fill="#f5ce42" r="14.18"/><path d="m35.3 36.72a12.29 12.29 0 1 0 -11.82-15.66 8.58 8.58 0 1 0 -4.85 15.66z" fill="#b9d8e8"/><g fill="none" stroke="#007a9d" stroke-linecap="round" stroke-linejoin="round" stroke-width="2"><path d="m37.33 31.33v11"/><path d="m39.13 32.55-1.8 1.8-1.8-1.8"/><path d="m35.53 41.15 1.8-1.8 1.8 1.8"/><path d="m31.81 36.85h11"/><path d="m33 35.05 1.8 1.8-1.8 1.81"/><path d="m41.63 38.66-1.8-1.81 1.8-1.8"/></g><path d="m17.25 32.83a1.91 1.91 0 0 1 1.91 1.91v2.82a1.92 1.92 0 0 1 -1.91 1.91 1.91 1.91 0 0 1 -1.91-1.91v-2.82a1.9 1.9 0 0 1 1.91-1.91z" fill="#615c9a"/><path d="m21.1 39.87a2 2 0 0 1 1.95 2v2.87a2 2 0 0 1 -1.95 2 2 2 0 0 1 -1.94-2v-2.92a1.94 1.94 0 0 1 1.94-1.95z" fill="#9fa6b7"/><path d="m25.81 32.83a2 2 0 0 1 2 2v5.46a2 2 0 0 1 -2 1.95 2 2 0 0 1 -1.94-1.95v-5.51a1.94 1.94 0 0 1 1.94-1.95z" fill="#83b3cb"/></svg>