<svg viewBox="0 0 57.59 57.59" xmlns="http://www.w3.org/2000/svg"><path d="m21.51 7.32a11.43 11.43 0 0 1 -11.42 11.44 11.66 11.66 0 0 1 -2.43-.26 11.43 11.43 0 1 0 13.54-13.8 11.58 11.58 0 0 1 .31 2.62z" fill="#7269af"/><path d="m35.29 38.54a12.29 12.29 0 1 0 -11.81-15.66 8.58 8.58 0 1 0 -4.85 15.66z" fill="#b9d8e8"/><path d="m26.3 38a24.84 24.84 0 0 0 -2.3-3 24 24 0 0 0 -2.32 3 5.12 5.12 0 0 0 -.95 2.34 3.27 3.27 0 0 0 6.53 0 5.14 5.14 0 0 0 -.96-2.34z" fill="#83b3cb"/><path d="m35.57 31.34-6.38 7.18 3.85.04-1.41 5.56 6.86-7.28h-4.26z" fill="#d86837"/></svg>