<svg viewBox="0 0 57.59 57.59" xmlns="http://www.w3.org/2000/svg"><path d="m21.49 5.56a11.44 11.44 0 0 1 -11.42 11.44 11.76 11.76 0 0 1 -2.44-.26 11.44 11.44 0 1 0 13.54-13.8 11.59 11.59 0 0 1 .32 2.62z" fill="#7269af"/><path d="m35.27 36.78a12.29 12.29 0 1 0 -11.81-15.66 8.58 8.58 0 1 0 -4.86 15.66z" fill="#b9d8e8"/><g fill="none" stroke="#007a9d" stroke-linecap="round" stroke-linejoin="round" stroke-width=".95"><path d="m42.37 30.5v8.12"/><path d="m43.7 31.39-1.33 1.32-1.32-1.32"/><path d="m41.05 37.72 1.32-1.33 1.33 1.33"/><path d="m38.31 34.56h8.12"/><path d="m39.22 33.23 1.32 1.32-1.32 1.33"/><path d="m45.54 35.88-1.33-1.33 1.33-1.32"/></g><circle cx="19.48" cy="36" fill="#615c9a" r="2.13"/><circle cx="20.51" cy="42.27" fill="#007a9d" r="2.13"/><circle cx="27.39" cy="36" fill="#9fa6b7" r="2.13"/><circle cx="28.25" cy="42.27" fill="#83b3cb" r="2.13"/><path d="m35.13 31.39-4.75 5.35 2.87.03-1.05 4.14 5.11-5.42h-3.18z" fill="#d86837"/></svg>