<svg viewBox="0 0 57.59 57.59" xmlns="http://www.w3.org/2000/svg"><path d="m35.27 36.78a12.29 12.29 0 1 0 -11.81-15.66 8.58 8.58 0 1 0 -4.85 15.66z" fill="#b9d8e8"/><g fill="none" stroke="#007a9d" stroke-linecap="round" stroke-linejoin="round"><path d="m38.6 32.23v8.55"/><path d="m40.01 33.17-1.41 1.39-1.38-1.39"/><path d="m37.22 39.83 1.38-1.4 1.41 1.4"/><path d="m34.33 36.5h8.56"/><path d="m35.28 35.1 1.39 1.4-1.39 1.39"/><path d="m41.95 37.89-1.4-1.39 1.4-1.4"/></g><circle cx="15.85" cy="36" fill="#615c9a" r="2.13"/><circle cx="16.88" cy="42.27" fill="#007a9d" r="2.13"/><circle cx="22.27" cy="36" fill="#9fa6b7" r="2.13"/><circle cx="23.13" cy="42.27" fill="#83b3cb" r="2.13"/><path d="m30.81 30.64-5.35 6.02 3.24.04-1.19 4.66 5.76-6.11h-3.58z" fill="#d86837"/></svg>