<svg viewBox="0 0 57.59 57.59" xmlns="http://www.w3.org/2000/svg"><circle cx="24.74" cy="17.74" fill="#f5ce42" r="14.18"/><path d="m35.22 36.78a12.29 12.29 0 1 0 -11.77-15.66 8.58 8.58 0 1 0 -4.85 15.66z" fill="#b9d8e8"/><g fill="none" stroke="#007a9d" stroke-linecap="round" stroke-linejoin="round"><path d="m37.21 32.23v8.55"/><path d="m38.61 33.17-1.4 1.39-1.39-1.39"/><path d="m35.82 39.83 1.39-1.4 1.4 1.4"/><path d="m32.94 36.5h8.55"/><path d="m33.89 35.1 1.39 1.4-1.39 1.39"/><path d="m40.55 37.89-1.4-1.39 1.4-1.4"/></g><circle cx="19.48" cy="36" fill="#615c9a" r="2.13"/><circle cx="20.51" cy="42.27" fill="#007a9d" r="2.13"/><circle cx="27.39" cy="36" fill="#9fa6b7" r="2.13"/><circle cx="28.25" cy="42.27" fill="#83b3cb" r="2.13"/></svg>