<svg viewBox="0 0 57.59 57.59" xmlns="http://www.w3.org/2000/svg"><circle cx="24.79" cy="17.79" fill="#f5ce42" r="14.18"/><path d="m35.27 36.83a12.29 12.29 0 1 0 -11.81-15.66 8.58 8.58 0 1 0 -4.86 15.66z" fill="#b9d8e8"/><path d="m30.64 29.17-6.83 7.68h4.13l-1.52 6 7.36-7.8h-4.58z" fill="#d86837"/><path d="m19.44 32.69a1.91 1.91 0 0 1 1.91 1.91v3.91a1.91 1.91 0 0 1 -1.91 1.91 1.92 1.92 0 0 1 -1.91-1.91v-3.91a1.92 1.92 0 0 1 1.91-1.91z" fill="#615c9a"/><path d="m24.56 40a1.94 1.94 0 0 1 1.94 2v4.07a1.94 1.94 0 0 1 -1.94 2 2 2 0 0 1 -1.95-2v-4.07a2 2 0 0 1 1.95-2z" fill="#9fa6b7"/><path d="m36.05 32.69a1.94 1.94 0 0 1 1.94 2v9.31a1.94 1.94 0 0 1 -1.94 2 2 2 0 0 1 -1.95-2v-9.36a2 2 0 0 1 1.95-1.95z" fill="#83b3cb"/></svg>