<svg viewBox="0 0 57.59 57.59" xmlns="http://www.w3.org/2000/svg"><path d="m21.47 5.61a11.43 11.43 0 0 1 -11.42 11.44 11 11 0 0 1 -2.43-.26 11.43 11.43 0 1 0 13.53-13.79 11.51 11.51 0 0 1 .32 2.61z" fill="#7269af"/><path d="m35.25 36.83a12.29 12.29 0 1 0 -11.81-15.66 8.58 8.58 0 1 0 -4.85 15.66z" fill="#b9d8e8"/><path d="m20.48 32.47a1.91 1.91 0 0 1 1.91 1.91v3.9a1.91 1.91 0 0 1 -1.91 1.91 1.9 1.9 0 0 1 -1.91-1.91v-3.9a1.9 1.9 0 0 1 1.91-1.91z" fill="#615c9a"/><rect fill="#9fa6b7" height="6.17" rx="1.94" width="3.89" x="27.82" y="32.47"/><path d="m25.59 39.81a2 2 0 0 1 1.95 1.95v4.07a2 2 0 0 1 -1.95 2 2 2 0 0 1 -1.94-2v-4.07a1.94 1.94 0 0 1 1.94-1.95z" fill="#9fa6b7"/><path d="m37.08 32.47a1.94 1.94 0 0 1 1.94 2v9.36a2 2 0 0 1 -1.94 2 2 2 0 0 1 -1.95-2v-9.41a2 2 0 0 1 1.95-1.95z" fill="#83b3cb"/></svg>