<svg viewBox="0 0 57.59 57.59" xmlns="http://www.w3.org/2000/svg"><circle cx="23.33" cy="16.52" fill="#f5ce42" r="14.18"/><path d="m33.81 35.56a12.29 12.29 0 1 0 -11.81-15.66 8.58 8.58 0 1 0 -4.85 15.66z" fill="#b9d8e8"/><circle cx="20.14" cy="34.86" fill="#615c9a" r="2.13"/><circle cx="22.28" cy="41.73" fill="#007a9d" r="2.13"/><circle cx="34.75" cy="34.86" fill="#9fa6b7" r="2.13"/><g fill="#83b3cb"><circle cx="36.88" cy="41.73" r="2.13"/><path d="m29.78 34.2a18.65 18.65 0 0 0 -2-2.55 21.13 21.13 0 0 0 -2 2.55 4.29 4.29 0 0 0 -.76 2 2.77 2.77 0 0 0 5.54 0 4.26 4.26 0 0 0 -.78-2z"/></g></svg>