<svg viewBox="0 0 57.59 57.59" xmlns="http://www.w3.org/2000/svg"><circle cx="23.33" cy="16.52" fill="#f5ce42" r="14.18"/><path d="m33.81 35.56a12.29 12.29 0 1 0 -11.81-15.66 8.58 8.58 0 1 0 -4.85 15.66z" fill="#b9d8e8"/><circle cx="16.47" cy="34.86" fill="#615c9a" r="2.13"/><circle cx="18.61" cy="41.73" fill="#007a9d" r="2.13"/><circle cx="37.19" cy="34.86" fill="#9fa6b7" r="2.13"/><circle cx="39.05" cy="41.32" fill="#83b3cb" r="2.13"/><path d="m24.81 34.54a19.6 19.6 0 0 0 -1.76-2.29 17.92 17.92 0 0 0 -1.77 2.29 3.92 3.92 0 0 0 -.73 1.79 2.5 2.5 0 0 0 5 0 3.92 3.92 0 0 0 -.74-1.79z" fill="#83b3cb"/><path d="m32.1 29.6-5.24 5.91 3.17.04-1.17 4.57 5.65-5.99h-3.51z" fill="#d86837"/></svg>