<svg viewBox="0 0 57.59 57.59" xmlns="http://www.w3.org/2000/svg"><path d="m21.35 5.56a11.42 11.42 0 0 1 -11.41 11.44 11.76 11.76 0 0 1 -2.44-.26 11.44 11.44 0 1 0 13.5-13.8 11 11 0 0 1 .35 2.62z" fill="#7269af"/><path d="m35.14 36.78a12.29 12.29 0 1 0 -11.81-15.66 8.58 8.58 0 1 0 -4.86 15.66z" fill="#b9d8e8"/><g fill="none" stroke="#007a9d" stroke-linecap="round" stroke-linejoin="round" stroke-width="1.32"><path d="m35.43 31.23v11.24"/><path d="m37.26 32.47-1.84 1.84-1.83-1.84"/><path d="m33.59 41.23 1.83-1.84 1.84 1.84"/><path d="m29.81 36.85h11.23"/><path d="m31.05 35.02 1.83 1.83-1.83 1.84"/><path d="m39.8 38.69-1.83-1.84 1.83-1.83"/></g><path d="m24.66 29.96-6.09 6.87 3.69.05-1.36 5.32 6.57-6.97h-4.08z" fill="#d86837"/></svg>