<svg viewBox="0 0 57.59 57.59" xmlns="http://www.w3.org/2000/svg"><path d="m35.27 36.78a12.29 12.29 0 1 0 -11.81-15.66 8.58 8.58 0 1 0 -4.85 15.66z" fill="#b9d8e8"/><g fill="none" stroke-linecap="round" stroke-linejoin="round"><path d="m41.2 31.66v8.28" stroke="#007a9d"/><path d="m42.55 32.58-1.35 1.35-1.35-1.35" stroke="#007a9d"/><path d="m39.85 39.03 1.35-1.35 1.35 1.35" stroke="#007a9d"/><path d="m37.06 35.8h8.28" stroke="#007a9d"/><path d="m37.97 34.45 1.36 1.35-1.36 1.36" stroke="#007a9d"/><path d="m44.42 37.16-1.35-1.36 1.35-1.35" stroke="#007a9d"/><path d="m26.63 40.81v-6.15" stroke="#83b3cb" stroke-width="4"/><path d="m21.09 43.75v-3.5" stroke="#9fa6b7" stroke-width="4"/><path d="m16.94 38v-3.34" stroke="#615c9a" stroke-width="4"/></g><path d="m33.95 31.16-4.98 5.62 3.01.03-1.1 4.35 5.37-5.69h-3.34z" fill="#d86837"/></svg>