<svg viewBox="0 0 57.59 57.59" xmlns="http://www.w3.org/2000/svg"><path d="m21.44 5.56a11.43 11.43 0 0 1 -11.44 11.44 11.12 11.12 0 0 1 -2.44-.26 11.44 11.44 0 1 0 13.56-13.8 11.59 11.59 0 0 1 .32 2.62z" fill="#7269af"/><path d="m35.22 36.78a12.29 12.29 0 1 0 -11.81-15.66 8.58 8.58 0 1 0 -4.86 15.66z" fill="#b9d8e8"/><g fill="none" stroke="#007a9d" stroke-linecap="round" stroke-linejoin="round" stroke-width="2"><path d="m36.08 28.32v17.06"/><path d="m38.87 30.2-2.79 2.79-2.78-2.79"/><path d="m33.3 43.5 2.78-2.79 2.79 2.79"/><path d="m27.55 36.85h17.07"/><path d="m29.43 34.06 2.79 2.79-2.79 2.79"/><path d="m42.73 39.64-2.79-2.79 2.79-2.79"/></g></svg>