<svg viewBox="0 0 57.59 57.59" xmlns="http://www.w3.org/2000/svg"><circle cx="24.79" cy="17.82" fill="#f5ce42" r="14.18"/><path d="m35.27 36.85a12.29 12.29 0 1 0 -11.81-15.65 8.58 8.58 0 1 0 -4.85 15.65z" fill="#b9d8e8"/><g fill="none" stroke="#007a9d" stroke-linecap="round" stroke-linejoin="round" stroke-width="1.32"><path d="m35.43 31.23v11.24"/><path d="m37.26 32.47-1.84 1.84-1.83-1.84"/><path d="m33.59 41.23 1.83-1.84 1.84 1.84"/><path d="m29.81 36.85h11.23"/><path d="m31.05 35.02 1.83 1.83-1.83 1.84"/><path d="m39.8 38.69-1.83-1.84 1.83-1.83"/></g><path d="m24.66 29.96-6.09 6.87 3.69.05-1.36 5.32 6.57-6.97h-4.08z" fill="#d86837"/></svg>