<svg viewBox="0 0 512 512" xmlns="http://www.w3.org/2000/svg"><path d="m507.38 247.16-66-46a66.46 66.46 0 0 0 -26.58-11 66.54 66.54 0 0 0 11-26.56l14.2-79.1a10.78 10.78 0 0 0 -12.5-12.5l-79.15 14.13a66.69 66.69 0 0 0 -26.56 11 66.46 66.46 0 0 0 -11-26.58l-46-66a10.77 10.77 0 0 0 -17.68 0l-46 66a66.61 66.61 0 0 0 -11 26.58 66.69 66.69 0 0 0 -26.56-11l-79.05-14.13a10.78 10.78 0 0 0 -12.5 12.5l14.15 79.15a66.54 66.54 0 0 0 11 26.56 66.61 66.61 0 0 0 -26.58 11l-66 46a10.78 10.78 0 0 0 0 17.68l66 46a66.46 66.46 0 0 0 26.58 11 66.69 66.69 0 0 0 -11 26.56l-14.15 79.05a10.78 10.78 0 0 0 12.5 12.5l79.15-14.15a66.54 66.54 0 0 0 26.56-11 66.61 66.61 0 0 0 11 26.58l46 66a10.77 10.77 0 0 0 17.68 0l46-66a66.46 66.46 0 0 0 11-26.58 66.54 66.54 0 0 0 26.56 11l79.05 14.15a10.78 10.78 0 0 0 12.5-12.5l-14.15-79.15a66.54 66.54 0 0 0 -11-26.56 66.61 66.61 0 0 0 26.58-11l66-46a10.77 10.77 0 0 0 -.05-17.63z" fill="#fc9f65"/><circle cx="256" cy="256" fill="#fbdd56" r="152.17"/><ellipse cx="180.39" cy="242.44" fill="#ff6e6e" rx="27.9" ry="22.22"/><ellipse cx="331.61" cy="242.44" fill="#ff6e6e" rx="27.9" ry="22.22"/><g fill="#414b58"><path d="m185.05 223.7a7.5 7.5 0 0 1 -7.5-7.5v-12a7.5 7.5 0 1 1 15 0v12a7.49 7.49 0 0 1 -7.5 7.5z"/><path d="m256 245.58a20.21 20.21 0 0 1 -20.21-20.21v-14.7a5.52 5.52 0 0 1 5.52-5.52h29.39a5.52 5.52 0 0 1 5.51 5.52v14.7a20.21 20.21 0 0 1 -20.21 20.21z"/><path d="m327 223.7a7.49 7.49 0 0 1 -7.5-7.5v-12a7.5 7.5 0 1 1 15 0v12a7.5 7.5 0 0 1 -7.5 7.5z"/></g><path d="m217.31 108.8a152.19 152.19 0 1 0 120.35 275.62c-193.98-16.36-210.07-210.1-120.35-275.62z" opacity=".08"/></svg>